<svg width="50" height="50" viewBox="0 0 50 50" fill="none" xmlns="http://www.w3.org/2000/svg">
<path d="M18.321 28.0598C18.0103 27.4936 18.3957 26.8223 18.9874 26.5635C20.7488 25.7932 21.9795 24.0352 21.9795 21.9898C21.9795 19.234 19.7455 17 16.9898 17C14.2881 17 12.0879 19.1472 12.0026 21.8281C12.0026 21.8285 12.0023 21.8288 12.0019 21.8288V21.8288C12.0015 21.8288 12.0012 21.8291 12.0012 21.8295C12.0004 21.8828 12 21.9362 12 21.9898C12 27.768 16.6842 32.4521 22.4624 32.4521V32.4521C22.6978 32.4521 22.731 32.0806 22.5124 31.9933C20.8031 31.3114 19.3362 29.9095 18.321 28.0598Z" stroke="#718BA6" stroke-linecap="round"/>
<path d="M31.4939 28.0598C31.1832 27.4936 31.5687 26.8223 32.1604 26.5635C33.9217 25.7932 35.1525 24.0352 35.1525 21.9898C35.1525 19.234 32.9185 17 30.1627 17C27.461 17 25.2608 19.1472 25.1755 21.8281C25.1755 21.8285 25.1752 21.8288 25.1748 21.8288V21.8288C25.1745 21.8288 25.1742 21.8291 25.1741 21.8295C25.1733 21.8828 25.1729 21.9362 25.1729 21.9898C25.1729 27.768 29.8571 32.4521 35.6353 32.4521V32.4521C35.8707 32.4521 35.9039 32.0806 35.6853 31.9933C33.9761 31.3114 32.5092 29.9095 31.4939 28.0598Z" stroke="#718BA6" stroke-linecap="round"/>
</svg>
